<?xml version="1.0" encoding="utf-8"?>
<!-- Generator: Adobe Illustrator 17.0.0, SVG Export Plug-In . SVG Version: 6.00 Build 0)  -->
<!DOCTYPE svg PUBLIC "-//W3C//DTD SVG 1.1//EN" "http://www.w3.org/Graphics/SVG/1.1/DTD/svg11.dtd">
<svg version="1.1" id="Camada_1" xmlns="http://www.w3.org/2000/svg" xmlns:xlink="http://www.w3.org/1999/xlink" x="0px" y="0px"
	 width="109.69px" height="43.314px" viewBox="0 0 109.69 43.314" enable-background="new 0 0 109.69 43.314" xml:space="preserve">
<g>
	<g>
		<path fill="#DAA520" d="M24.393,9.03H2.661c0.142,0.52,0.299,1.034,0.469,1.542h22.095C24.92,10.075,24.642,9.561,24.393,9.03z"/>
		<path fill="#DAA520" d="M22.969,3.926H1.761c0.051,0.606,0.115,1.207,0.203,1.802h21.299C23.134,5.138,23.031,4.539,22.969,3.926z
			"/>
		<path fill="#DAA520" d="M23.456,6.478H2.092C2.198,7.085,2.322,7.686,2.467,8.28h21.588C23.818,7.697,23.623,7.093,23.456,6.478z"
			/>
		<path fill="#DAA520" d="M22.889,2.341c0-0.281,0.028-0.554,0.042-0.831H1.651c0,0.56,0.02,1.115,0.052,1.667h21.228
			C22.917,2.898,22.889,2.623,22.889,2.341z"/>
		<path fill="#DAA520" d="M107.74,30.041c0-15.757-12.774-28.531-28.531-28.531c-9.413,0-17.759,4.561-22.956,11.591
			c1.578-3.543,2.462-7.463,2.462-11.591H54.41c0.014,0.277,0.042,0.551,0.042,0.831c0,8.716-7.066,15.781-15.781,15.781
			c-5.377,0-10.119-2.694-12.968-6.8H3.384c4.001,10.923,14.49,18.719,26.799,18.719c9.413,0,17.759-4.561,22.956-11.591
			c-1.578,3.543-2.462,7.463-2.462,11.591h20.962c-0.011-0.24-0.036-0.477-0.036-0.72c0-7.701,5.554-14.093,12.872-15.421
			c1.21-0.284,1.251,0.716,1.254,1.558v14.583h4.313V15.628c-0.065-0.929,0.726-1.679,1.901-1.291
			c6.391,1.983,11.033,7.941,11.033,14.984c0,0.243-0.025,0.48-0.036,0.72H107.74z"/>
	</g>
	
		<text transform="matrix(1 0 0 1 1.4166 41.8052)" fill="#DAA520" font-family="'Roboto-Condensed'" font-size="11.1405" letter-spacing="3">UCHÔA MÓVEIS</text>
</g>
</svg>
