<?xml version="1.0" encoding="utf-8"?>
<!-- Generator: Adobe Illustrator 17.0.0, SVG Export Plug-In . SVG Version: 6.00 Build 0)  -->
<!DOCTYPE svg PUBLIC "-//W3C//DTD SVG 1.1//EN" "http://www.w3.org/Graphics/SVG/1.1/DTD/svg11.dtd">
<svg version="1.1" id="Camada_1" xmlns="http://www.w3.org/2000/svg" xmlns:xlink="http://www.w3.org/1999/xlink" x="0px" y="0px"
	 width="200px" height="76.179px" viewBox="-45.305 -16.375 200 76.179" enable-background="new -45.305 -16.375 200 76.179"
	 xml:space="preserve">
<g>
	<linearGradient id="SVGID_1_" gradientUnits="userSpaceOnUse" x1="-36.5639" y1="-2.2433" x2="158.084" y2="63.2677">
		<stop  offset="0" style="stop-color:#CB8F1E"/>
		<stop  offset="0.5408" style="stop-color:#FCF6BB"/>
		<stop  offset="0.9038" style="stop-color:#DEB75B"/>
		<stop  offset="1" style="stop-color:#CB8F1E"/>
	</linearGradient>
	<path fill="url(#SVGID_1_)" d="M-2.431-2.198H-43.4c0.268,0.98,0.564,1.949,0.884,2.907h41.654
		C-1.438-0.228-1.962-1.197-2.431-2.198z M-5.116-11.821h-39.982c0.096,1.142,0.217,2.275,0.383,3.397h40.153
		C-4.805-9.536-4.999-10.665-5.116-11.821z M-4.198-7.009h-40.276c0.2,1.144,0.434,2.277,0.707,3.397h40.698
		C-3.515-4.711-3.883-5.85-4.198-7.009z M-5.266-14.809c0-0.53,0.053-1.044,0.079-1.567h-40.117c0,1.056,0.038,2.102,0.098,3.143
		h40.019C-5.214-13.759-5.266-14.277-5.266-14.809z M154.695,37.412c0-29.705-24.082-53.787-53.787-53.787
		c-17.745,0-33.479,8.598-43.277,21.851c2.975-6.679,4.641-14.069,4.641-21.851h-8.116c0.026,0.522,0.079,1.039,0.079,1.567
		c0,16.431-13.321,29.75-29.75,29.75c-10.137,0-19.076-5.079-24.447-12.819h-42.076c7.543,20.592,27.317,35.289,50.522,35.289
		c17.745,0,33.479-8.598,43.277-21.851C48.786,22.24,47.12,29.63,47.12,37.412h39.518c-0.021-0.452-0.068-0.899-0.068-1.357
		c0-14.518,10.47-26.568,24.266-29.072c2.281-0.535,2.358,1.35,2.364,2.937v27.492h8.131V10.24
		c-0.123-1.751,1.369-3.165,3.584-2.434c12.048,3.738,20.8,14.97,20.8,28.248c0,0.458-0.047,0.905-0.068,1.357
		C145.646,37.412,154.695,37.412,154.695,37.412z M-34.548,44.658v9.875c0,1.655-0.466,2.947-1.395,3.876s-2.136,1.395-3.62,1.395
		c-1.455,0-2.641-0.466-3.554-1.399s-1.371-2.225-1.371-3.872v-9.875h2.083v9.875c0,1.154,0.262,2.061,0.784,2.711
		c0.522,0.654,1.208,0.98,2.057,0.98c0.875,0,1.58-0.324,2.117-0.975c0.537-0.65,0.805-1.555,0.805-2.717v-9.875
		C-36.64,44.658-34.548,44.658-34.548,44.658z M-16.889,55.099l0.021,0.062c0.026,1.469-0.383,2.611-1.231,3.424
		c-0.848,0.813-2.013,1.22-3.497,1.22c-1.533,0-2.751-0.49-3.661-1.47c-0.911-0.98-1.365-2.358-1.365-4.127v-4.144
		c0-1.765,0.449-3.141,1.344-4.132c0.895-0.99,2.098-1.486,3.61-1.486c1.525,0,2.713,0.394,3.569,1.184
		c0.854,0.79,1.269,1.944,1.24,3.461l-0.021,0.06h-2c0-1.065-0.232-1.849-0.698-2.353c-0.466-0.503-1.163-0.752-2.093-0.752
		c-0.916,0-1.623,0.343-2.123,1.031c-0.5,0.686-0.748,1.672-0.748,2.958v4.174c0,1.297,0.256,2.294,0.769,2.984
		c0.513,0.69,1.237,1.035,2.174,1.035c0.903,0,1.58-0.247,2.03-0.745c0.451-0.496,0.677-1.291,0.677-2.385
		C-18.891,55.099-16.889,55.099-16.889,55.099z M1.045,59.589h-2.081v-6.583h-5.846v6.583h-2.081V44.658h2.081v6.758h5.846v-6.758
		h2.081V59.589z M19.596,54.184c0,1.77-0.479,3.152-1.435,4.138c-0.958,0.988-2.24,1.482-3.846,1.482
		c-1.585,0-2.849-0.494-3.784-1.482c-0.937-0.986-1.404-2.368-1.404-4.138v-4.102c0-1.765,0.468-3.145,1.404-4.142
		c0.937-0.997,2.194-1.497,3.774-1.497c1.606,0,2.89,0.498,3.85,1.491c0.96,0.995,1.44,2.379,1.44,4.147
		C19.596,50.082,19.596,54.184,19.596,54.184z M17.524,50.054c0-1.299-0.279-2.287-0.835-2.958c-0.558-0.673-1.352-1.01-2.385-1.01
		c-0.999,0-1.766,0.337-2.302,1.01c-0.537,0.671-0.805,1.659-0.805,2.958v4.13c0,1.312,0.27,2.309,0.811,2.984
		c0.541,0.677,1.308,1.016,2.307,1.016c1.031,0,1.825-0.337,2.379-1.01c0.554-0.673,0.831-1.67,0.831-2.99v-4.131H17.524z
		 M17.318,42.752v0.224h-1.682l-1.293-1.548l-1.271,1.548h-1.661v-0.236l2.307-2.379h1.261L17.318,42.752z M34.076,55.815h-4.46
		l-1.076,3.774h-2.164l4.481-14.931h2.021l4.44,14.931h-2.162L34.076,55.815z M30.085,54.164h3.529l-1.723-6.07h-0.062
		L30.085,54.164z M61.166,56.841h0.06l3.578-12.182h2.666v14.931h-2.072V48.832l-0.06-0.011l-3.425,10.768h-1.425l-3.476-10.932
		l-0.062,0.011v10.921h-2.07V44.658h2.717L61.166,56.841z M85.963,54.184c0,1.77-0.479,3.152-1.437,4.138
		c-0.958,0.988-2.24,1.482-3.846,1.482c-1.585,0-2.849-0.494-3.784-1.482c-0.937-0.986-1.404-2.368-1.404-4.138v-4.102
		c0-1.765,0.468-3.145,1.404-4.142c0.935-0.997,2.194-1.497,3.774-1.497c1.606,0,2.888,0.498,3.85,1.491
		c0.961,0.995,1.442,2.379,1.442,4.147V54.184z M83.891,50.054c0-1.299-0.279-2.287-0.835-2.958c-0.558-0.673-1.354-1.01-2.385-1.01
		c-0.999,0-1.766,0.337-2.304,1.01c-0.535,0.671-0.805,1.659-0.805,2.958v4.13c0,1.312,0.27,2.309,0.811,2.984
		c0.539,0.677,1.308,1.016,2.307,1.016c1.033,0,1.827-0.337,2.379-1.01c0.554-0.673,0.831-1.67,0.831-2.99V50.054z M81.489,40.26
		h2.39l0.032,0.051l-2.481,2.677h-1.744L81.489,40.26z M97.928,56.166l0.215,0.911h0.062l0.213-0.903l3.107-11.515h2.226
		l-4.564,14.931h-2.028l-4.553-14.931h2.215L97.928,56.166z M118.181,52.659h-5.067v5.352h5.969v1.58h-8.05V44.66h7.997v1.601
		h-5.918v4.809h5.067v1.589H118.181z M129.091,59.589h-2.081V44.658h2.081V59.589z M144.596,55.836c0-0.682-0.196-1.244-0.586-1.687
		c-0.39-0.443-1.076-0.843-2.061-1.207c-1.403-0.435-2.479-0.999-3.231-1.691c-0.752-0.69-1.129-1.61-1.129-2.758
		c0-1.176,0.417-2.145,1.246-2.907s1.897-1.142,3.194-1.142c1.38,0,2.488,0.424,3.324,1.271c0.833,0.848,1.237,1.912,1.21,3.19
		l-0.021,0.06h-2c0-0.875-0.232-1.582-0.698-2.123c-0.466-0.539-1.076-0.811-1.836-0.811c-0.739,0-1.31,0.232-1.717,0.698
		c-0.407,0.464-0.609,1.046-0.609,1.744c0,0.65,0.213,1.186,0.645,1.61c0.432,0.426,1.156,0.826,2.174,1.201
		c1.361,0.445,2.396,1.026,3.107,1.744s1.065,1.648,1.065,2.788c0,1.218-0.419,2.187-1.256,2.907
		c-0.837,0.722-1.936,1.082-3.297,1.082c-1.312,0-2.455-0.39-3.424-1.169c-0.973-0.779-1.44-1.898-1.404-3.354l0.021-0.06h2.01
		c0,1.012,0.268,1.768,0.805,2.266c0.535,0.5,1.201,0.748,1.995,0.748c0.773,0,1.376-0.217,1.815-0.652
		C144.376,57.148,144.596,56.569,144.596,55.836z"/>
</g>
</svg>
