<?xml version="1.0" encoding="utf-8"?>
<!-- Generator: Adobe Illustrator 17.0.0, SVG Export Plug-In . SVG Version: 6.00 Build 0)  -->
<!DOCTYPE svg PUBLIC "-//W3C//DTD SVG 1.1//EN" "http://www.w3.org/Graphics/SVG/1.1/DTD/svg11.dtd">
<svg version="1.1" id="Camada_1" xmlns="http://www.w3.org/2000/svg" xmlns:xlink="http://www.w3.org/1999/xlink" x="0px" y="0px"
	 width="109.69px" height="43.314px" viewBox="0 0 109.69 43.314" enable-background="new 0 0 109.69 43.314" xml:space="preserve">
<linearGradient id="SVGID_1_" gradientUnits="userSpaceOnUse" x1="6.2874" y1="9.0062" x2="109.5374" y2="43.7562">
	<stop  offset="0" style="stop-color:#CB8F1E"/>
	<stop  offset="0.5408" style="stop-color:#FCF6BB"/>
	<stop  offset="0.9038" style="stop-color:#DEB75B"/>
	<stop  offset="1" style="stop-color:#CB8F1E"/>
</linearGradient>
<path fill="url(#SVGID_1_)" d="M24.393,9.03H2.661c0.142,0.52,0.299,1.034,0.469,1.542h22.095
	C24.92,10.075,24.642,9.561,24.393,9.03z M22.969,3.926H1.761c0.051,0.606,0.115,1.207,0.203,1.802h21.299
	C23.134,5.138,23.031,4.539,22.969,3.926z M23.456,6.478H2.092c0.106,0.607,0.23,1.208,0.375,1.802h21.588
	C23.818,7.697,23.623,7.093,23.456,6.478z M22.889,2.341c0-0.281,0.028-0.554,0.042-0.831H1.651c0,0.56,0.02,1.115,0.052,1.667
	h21.228C22.917,2.898,22.889,2.623,22.889,2.341z M107.74,30.041c0-15.757-12.774-28.531-28.531-28.531
	c-9.413,0-17.759,4.561-22.956,11.591c1.578-3.543,2.462-7.463,2.462-11.591H54.41c0.014,0.277,0.042,0.551,0.042,0.831
	c0,8.716-7.066,15.781-15.781,15.781c-5.377,0-10.119-2.694-12.968-6.8H3.384c4.001,10.923,14.49,18.719,26.799,18.719
	c9.413,0,17.759-4.561,22.956-11.591c-1.578,3.543-2.462,7.463-2.462,11.591h20.962c-0.011-0.24-0.036-0.477-0.036-0.72
	c0-7.701,5.554-14.093,12.872-15.421c1.21-0.284,1.251,0.716,1.254,1.558v14.583h4.313V15.628c-0.065-0.929,0.726-1.679,1.901-1.291
	c6.391,1.983,11.033,7.941,11.033,14.984c0,0.243-0.025,0.48-0.036,0.72C102.94,30.041,107.74,30.041,107.74,30.041z M7.357,33.885
	v5.238c0,0.878-0.247,1.563-0.74,2.056s-1.133,0.74-1.92,0.74c-0.772,0-1.401-0.247-1.885-0.742s-0.727-1.18-0.727-2.054v-5.238
	H3.19v5.238c0,0.612,0.139,1.093,0.416,1.438c0.277,0.347,0.641,0.52,1.091,0.52c0.464,0,0.838-0.172,1.123-0.517
	s0.427-0.825,0.427-1.441v-5.238C6.247,33.885,7.357,33.885,7.357,33.885z M16.724,39.423l0.011,0.033
	c0.014,0.779-0.203,1.385-0.653,1.816s-1.068,0.647-1.855,0.647c-0.813,0-1.459-0.26-1.942-0.78s-0.724-1.251-0.724-2.189v-2.198
	c0-0.936,0.238-1.666,0.713-2.192c0.475-0.525,1.113-0.788,1.915-0.788c0.809,0,1.439,0.209,1.893,0.628
	c0.453,0.419,0.673,1.031,0.658,1.836l-0.011,0.032h-1.061c0-0.565-0.123-0.981-0.37-1.248s-0.617-0.399-1.11-0.399
	c-0.486,0-0.861,0.182-1.126,0.547c-0.265,0.364-0.397,0.887-0.397,1.569v2.214c0,0.688,0.136,1.217,0.408,1.583
	s0.656,0.549,1.153,0.549c0.479,0,0.838-0.131,1.077-0.395c0.239-0.263,0.359-0.685,0.359-1.265
	C15.662,39.423,16.724,39.423,16.724,39.423z M26.237,41.805h-1.104v-3.492h-3.101v3.492h-1.104v-7.92h1.104v3.585h3.101v-3.585
	h1.104V41.805z M36.077,38.938c0,0.939-0.254,1.672-0.761,2.195c-0.508,0.524-1.188,0.786-2.04,0.786
	c-0.841,0-1.511-0.262-2.007-0.786c-0.497-0.523-0.745-1.256-0.745-2.195v-2.176c0-0.936,0.248-1.668,0.745-2.197
	c0.497-0.529,1.164-0.794,2.002-0.794c0.852,0,1.533,0.264,2.042,0.791c0.509,0.528,0.764,1.262,0.764,2.2
	C36.077,36.762,36.077,38.938,36.077,38.938z M34.978,36.747c0-0.689-0.148-1.213-0.443-1.569c-0.296-0.357-0.717-0.536-1.265-0.536
	c-0.53,0-0.937,0.179-1.221,0.536c-0.285,0.356-0.427,0.88-0.427,1.569v2.191c0,0.696,0.143,1.225,0.43,1.583
	c0.287,0.359,0.694,0.539,1.224,0.539c0.547,0,0.968-0.179,1.262-0.536c0.294-0.357,0.441-0.886,0.441-1.586L34.978,36.747
	L34.978,36.747z M34.869,32.874v0.119h-0.892l-0.686-0.821l-0.674,0.821h-0.881v-0.125l1.224-1.262h0.669L34.869,32.874z
	 M43.758,39.803h-2.366l-0.571,2.002h-1.148l2.377-7.92h1.072l2.355,7.92H44.33L43.758,39.803z M41.641,38.927h1.872l-0.914-3.22
	h-0.033L41.641,38.927z M58.128,40.347h0.032l1.898-6.462h1.414v7.92h-1.099v-5.706l-0.032-0.006l-1.817,5.712h-0.756l-1.844-5.799
	l-0.033,0.006v5.793h-1.098v-7.92h1.441L58.128,40.347z M71.281,38.938c0,0.939-0.254,1.672-0.762,2.195
	c-0.508,0.524-1.188,0.786-2.04,0.786c-0.841,0-1.511-0.262-2.007-0.786c-0.497-0.523-0.745-1.256-0.745-2.195v-2.176
	c0-0.936,0.248-1.668,0.745-2.197c0.496-0.529,1.164-0.794,2.002-0.794c0.852,0,1.532,0.264,2.042,0.791
	c0.51,0.528,0.765,1.262,0.765,2.2V38.938z M70.182,36.747c0-0.689-0.148-1.213-0.443-1.569c-0.296-0.357-0.718-0.536-1.265-0.536
	c-0.53,0-0.937,0.179-1.222,0.536c-0.284,0.356-0.427,0.88-0.427,1.569v2.191c0,0.696,0.143,1.225,0.43,1.583
	c0.286,0.359,0.694,0.539,1.224,0.539c0.548,0,0.969-0.179,1.262-0.536c0.294-0.357,0.441-0.886,0.441-1.586V36.747z M68.908,31.552
	h1.268l0.017,0.027l-1.316,1.42h-0.925L68.908,31.552z M77.628,39.989l0.114,0.483h0.033l0.113-0.479l1.648-6.108h1.181l-2.421,7.92
	H77.22l-2.415-7.92h1.175L77.628,39.989z M88.371,38.129h-2.688v2.839h3.166v0.838h-4.27v-7.92h4.242v0.849h-3.139v2.551h2.688
	L88.371,38.129L88.371,38.129z M94.158,41.805h-1.104v-7.92h1.104V41.805z M102.383,39.814c0-0.362-0.104-0.66-0.311-0.895
	s-0.571-0.447-1.093-0.64c-0.744-0.231-1.315-0.53-1.714-0.897c-0.399-0.366-0.599-0.854-0.599-1.463
	c0-0.624,0.221-1.138,0.661-1.542s1.006-0.606,1.694-0.606c0.732,0,1.32,0.225,1.763,0.674c0.442,0.45,0.656,1.014,0.642,1.692
	l-0.011,0.032h-1.061c0-0.464-0.123-0.839-0.37-1.126c-0.247-0.286-0.571-0.43-0.974-0.43c-0.392,0-0.695,0.123-0.911,0.37
	c-0.216,0.246-0.323,0.555-0.323,0.925c0,0.345,0.113,0.629,0.342,0.854c0.229,0.226,0.613,0.438,1.153,0.637
	c0.722,0.236,1.271,0.544,1.648,0.925s0.565,0.874,0.565,1.479c0,0.646-0.222,1.16-0.666,1.542
	c-0.444,0.383-1.027,0.574-1.749,0.574c-0.696,0-1.302-0.207-1.816-0.62c-0.516-0.413-0.764-1.007-0.745-1.779l0.011-0.032h1.066
	c0,0.537,0.142,0.938,0.427,1.202c0.284,0.265,0.637,0.397,1.058,0.397c0.41,0,0.73-0.115,0.963-0.346
	S102.383,40.203,102.383,39.814z"/>
</svg>
