<?xml version="1.0" encoding="utf-8"?>
<!-- Generator: Adobe Illustrator 17.0.0, SVG Export Plug-In . SVG Version: 6.00 Build 0)  -->
<!DOCTYPE svg PUBLIC "-//W3C//DTD SVG 1.1//EN" "http://www.w3.org/Graphics/SVG/1.1/DTD/svg11.dtd">
<svg version="1.1" id="Camada_1" xmlns="http://www.w3.org/2000/svg" xmlns:xlink="http://www.w3.org/1999/xlink" x="0px" y="0px"
	 width="109.69px" height="43.314px" viewBox="0 0 109.69 43.314" enable-background="new 0 0 109.69 43.314" xml:space="preserve">
<g>
	<g>
		<path fill="#FFFFFF" d="M24.542,8.973H2.81c0.142,0.52,0.299,1.034,0.469,1.542h22.095C25.069,10.018,24.791,9.504,24.542,8.973z"
			/>
		<path fill="#FFFFFF" d="M23.119,3.869H1.91c0.051,0.606,0.115,1.207,0.203,1.802h21.299C23.283,5.081,23.18,4.482,23.119,3.869z"
			/>
		<path fill="#FFFFFF" d="M23.605,6.421H2.241C2.348,7.028,2.472,7.63,2.616,8.223h21.588C23.967,7.64,23.772,7.037,23.605,6.421z"
			/>
		<path fill="#FFFFFF" d="M23.039,2.284c0-0.281,0.028-0.554,0.042-0.831H1.801c0,0.56,0.02,1.115,0.052,1.667h21.228
			C23.066,2.841,23.039,2.566,23.039,2.284z"/>
		<path fill="#FFFFFF" d="M107.89,29.984c0-15.757-12.774-28.531-28.531-28.531c-9.413,0-17.759,4.561-22.956,11.591
			c1.578-3.543,2.462-7.463,2.462-11.591H54.56c0.014,0.277,0.042,0.551,0.042,0.831c0,8.716-7.066,15.781-15.781,15.781
			c-5.377,0-10.119-2.694-12.968-6.8H3.533c4.001,10.923,14.49,18.719,26.799,18.719c9.413,0,17.759-4.561,22.956-11.591
			c-1.578,3.543-2.462,7.463-2.462,11.591h20.962c-0.011-0.24-0.036-0.477-0.036-0.72c0-7.701,5.554-14.093,12.872-15.421
			c1.21-0.284,1.251,0.716,1.254,1.558v14.583h4.313V15.571c-0.065-0.929,0.726-1.679,1.901-1.291
			c6.391,1.983,11.033,7.941,11.033,14.984c0,0.243-0.025,0.48-0.036,0.72H107.89z"/>
	</g>
	<g>
		<path fill="#FFFFFF" d="M7.506,33.829v5.238c0,0.877-0.247,1.563-0.74,2.055c-0.493,0.494-1.133,0.74-1.92,0.74
			c-0.772,0-1.401-0.246-1.885-0.742c-0.484-0.494-0.727-1.18-0.727-2.053v-5.238h1.104v5.238c0,0.611,0.139,1.092,0.416,1.438
			c0.277,0.348,0.641,0.52,1.091,0.52c0.464,0,0.838-0.172,1.123-0.516c0.285-0.346,0.427-0.826,0.427-1.441v-5.238H7.506z"/>
		<path fill="#FFFFFF" d="M17.218,39.366l0.011,0.033c0.014,0.779-0.203,1.385-0.653,1.816s-1.068,0.646-1.855,0.646
			c-0.813,0-1.459-0.26-1.942-0.779c-0.482-0.521-0.724-1.252-0.724-2.189v-2.199c0-0.936,0.238-1.666,0.713-2.191
			c0.475-0.525,1.113-0.789,1.915-0.789c0.809,0,1.439,0.209,1.893,0.629c0.453,0.418,0.673,1.031,0.658,1.836l-0.011,0.031h-1.061
			c0-0.564-0.123-0.98-0.37-1.248c-0.247-0.266-0.617-0.398-1.11-0.398c-0.486,0-0.861,0.182-1.126,0.547
			c-0.265,0.363-0.397,0.887-0.397,1.568v2.215c0,0.688,0.136,1.217,0.408,1.582c0.272,0.367,0.656,0.549,1.153,0.549
			c0.479,0,0.838-0.131,1.077-0.395c0.239-0.262,0.359-0.684,0.359-1.264H17.218z"/>
		<path fill="#FFFFFF" d="M27.077,41.749h-1.104v-3.492h-3.101v3.492h-1.104v-7.92h1.104v3.584h3.101v-3.584h1.104V41.749z"/>
		<path fill="#FFFFFF" d="M37.262,38.882c0,0.939-0.254,1.672-0.761,2.195c-0.508,0.523-1.188,0.785-2.04,0.785
			c-0.841,0-1.511-0.262-2.007-0.785c-0.497-0.523-0.745-1.256-0.745-2.195v-2.176c0-0.936,0.248-1.668,0.745-2.197
			c0.497-0.529,1.164-0.795,2.002-0.795c0.852,0,1.533,0.264,2.042,0.791c0.509,0.529,0.764,1.262,0.764,2.201V38.882z
			 M36.163,36.69c0-0.689-0.148-1.213-0.443-1.57c-0.296-0.357-0.717-0.535-1.265-0.535c-0.53,0-0.937,0.178-1.221,0.535
			s-0.427,0.881-0.427,1.57v2.191c0,0.695,0.143,1.225,0.43,1.582c0.287,0.359,0.694,0.539,1.224,0.539
			c0.547,0,0.968-0.178,1.262-0.535c0.294-0.357,0.441-0.887,0.441-1.586V36.69z M36.055,32.817v0.119h-0.892l-0.686-0.822
			l-0.674,0.822h-0.881v-0.125l1.224-1.262h0.669L36.055,32.817z"/>
		<path fill="#FFFFFF" d="M45.288,39.747h-2.366l-0.571,2.002h-1.148l2.377-7.92h1.072l2.355,7.92h-1.147L45.288,39.747z
			 M43.172,38.87h1.872l-0.914-3.219h-0.033L43.172,38.87z"/>
		<path fill="#FFFFFF" d="M60.35,40.29h0.033l1.898-6.461h1.414v7.92h-1.099v-5.707l-0.032-0.006l-1.817,5.713h-0.756l-1.845-5.799
			l-0.032,0.006v5.793h-1.099v-7.92h1.441L60.35,40.29z"/>
		<path fill="#FFFFFF" d="M73.848,38.882c0,0.939-0.254,1.672-0.762,2.195s-1.188,0.785-2.04,0.785c-0.841,0-1.51-0.262-2.007-0.785
			s-0.745-1.256-0.745-2.195v-2.176c0-0.936,0.248-1.668,0.745-2.197s1.164-0.795,2.002-0.795c0.852,0,1.533,0.264,2.042,0.791
			c0.51,0.529,0.765,1.262,0.765,2.201V38.882z M72.749,36.69c0-0.689-0.147-1.213-0.443-1.57s-0.717-0.535-1.265-0.535
			c-0.529,0-0.937,0.178-1.222,0.535c-0.284,0.357-0.427,0.881-0.427,1.57v2.191c0,0.695,0.144,1.225,0.43,1.582
			c0.286,0.359,0.694,0.539,1.224,0.539c0.548,0,0.969-0.178,1.263-0.535s0.44-0.887,0.44-1.586V36.69z M71.475,31.495h1.268
			l0.017,0.027l-1.316,1.42h-0.925L71.475,31.495z"/>
		<path fill="#FFFFFF" d="M80.541,39.932l0.114,0.482h0.033l0.114-0.479l1.648-6.107h1.18l-2.42,7.92h-1.077l-2.416-7.92h1.176
			L80.541,39.932z"/>
		<path fill="#FFFFFF" d="M91.63,38.071h-2.688v2.84h3.166v0.838h-4.271v-7.92h4.243v0.848h-3.139v2.551h2.688V38.071z"/>
		<path fill="#FFFFFF" d="M97.762,41.749h-1.104v-7.92h1.104V41.749z"/>
		<path fill="#FFFFFF" d="M106.332,39.757c0-0.361-0.104-0.66-0.311-0.895c-0.206-0.234-0.57-0.447-1.093-0.639
			c-0.744-0.232-1.314-0.531-1.714-0.898c-0.398-0.365-0.599-0.854-0.599-1.463c0-0.623,0.221-1.137,0.661-1.541
			s1.006-0.607,1.694-0.607c0.732,0,1.32,0.225,1.763,0.674c0.442,0.451,0.656,1.014,0.642,1.693l-0.011,0.031h-1.061
			c0-0.463-0.123-0.838-0.37-1.125c-0.246-0.287-0.571-0.43-0.974-0.43c-0.392,0-0.695,0.123-0.911,0.369s-0.323,0.555-0.323,0.926
			c0,0.344,0.114,0.629,0.343,0.854s0.612,0.438,1.153,0.637c0.722,0.236,1.271,0.543,1.647,0.924
			c0.378,0.381,0.566,0.875,0.566,1.48c0,0.645-0.223,1.16-0.667,1.541c-0.444,0.383-1.027,0.574-1.749,0.574
			c-0.696,0-1.302-0.207-1.816-0.619c-0.515-0.414-0.764-1.008-0.745-1.779l0.011-0.033h1.066c0,0.537,0.143,0.938,0.427,1.203
			c0.285,0.264,0.638,0.396,1.058,0.396c0.41,0,0.731-0.115,0.963-0.346C106.216,40.454,106.332,40.145,106.332,39.757z"/>
	</g>
</g>
</svg>
