<?xml version="1.0"?>
<svg xmlns="http://www.w3.org/2000/svg" height="512px" viewBox="0 -12 480 480" width="512px"><path d="m200 216h-8c-8.800781 0-16 7.199219-16 16h-8c0-8.800781-7.199219-16-16-16h-8c-8.800781 0-16 7.199219-16 16v40h88v-40c0-8.800781-7.199219-16-16-16zm0 40h-56v-24h8c0 8.800781 7.199219 16 16 16h8c8.800781 0 16-7.199219 16-16h8zm0 0" fill="#daa520"/><path d="m232 32h16v368h-16zm0 0" fill="#daa520"/><path d="m456 0h-432c-13.601562 0-24 10.398438-24 24v408h8v24h16v-24h208v24h16v-24h208c13.601562 0 24-10.398438 24-24v-384c0-13.601562-10.398438-24-24-24zm8 408c0 4.800781-3.199219 8-8 8h-440v-392c0-4.800781 3.199219-8 8-8h432c4.800781 0 8 3.199219 8 8zm0 0" fill="#daa520"/><path d="m32 160h184v-128h-184zm16-112h152v96h-152zm0 0" fill="#daa520"/><path d="m32 376c0 13.601562 10.398438 24 24 24h136c13.601562 0 24-10.398438 24-24v-56h-184zm16-40h152v40c0 4.800781-3.199219 8-8 8h-136c-4.800781 0-8-3.199219-8-8zm0 0" fill="#daa520"/><path d="m272 384h176v16h-176zm0 0" fill="#daa520"/><path d="m32 288h184v16h-184zm0 0" fill="#daa520"/><path d="m52.800781 271.199219 1.597657.800781h36l1.601562-.800781c12.800781-6.398438 20.800781-19.199219 20.800781-32.800781v-22.398438h-80.800781v22.398438c0 13.601562 8 26.402343 20.800781 32.800781zm-4.800781-39.199219h48v6.398438c0 7.203124-4 14.402343-10.398438 17.601562h-27.203124c-6.398438-4-10.398438-10.398438-10.398438-17.601562zm0 0" fill="#daa520"/><path d="m64 120c0 8.800781 7.199219 16 16 16h16c8.800781 0 16-7.199219 16-16v-32h-48zm16-16h16v16h-16zm0 0" fill="#daa520"/><path d="m64 64h48v16h-48zm0 0" fill="#daa520"/><path d="m272 240h176v16h-176zm0 0" fill="#daa520"/><path d="m288 368h16c8.800781 0 16-7.199219 16-16v-40c0-10.398438-6.398438-19.199219-16-22.398438v-17.601562h-16v17.601562c-9.601562 3.199219-16 12-16 22.398438v40c0 8.800781 7.199219 16 16 16zm0-56c0-4.800781 3.199219-8 8-8s8 3.199219 8 8v40h-16zm0 0" fill="#daa520"/><path d="m352 272v17.601562c-9.601562 3.199219-16 12-16 22.398438v40c0 8.800781 7.199219 16 16 16h16c8.800781 0 16-7.199219 16-16v-40c0-10.398438-6.398438-19.199219-16-22.398438v-17.601562zm16 80h-16v-40c0-4.800781 3.199219-8 8-8s8 3.199219 8 8zm0 0" fill="#daa520"/><path d="m432 289.601562v-17.601562h-16v17.601562c-9.601562 3.199219-16 12-16 22.398438v40c0 8.800781 7.199219 16 16 16h16c8.800781 0 16-7.199219 16-16v-40c0-10.398438-6.398438-19.199219-16-22.398438zm0 62.398438h-16v-40c0-4.800781 3.199219-8 8-8s8 3.199219 8 8zm0 0" fill="#daa520"/><path d="m288 56c0-4.800781 3.199219-8 8-8s8 3.199219 8 8v16h16v-16c0-13.601562-10.398438-24-24-24s-24 10.398438-24 24v16h16zm0 0" fill="#daa520"/><path d="m352 56c0-4.800781 3.199219-8 8-8s8 3.199219 8 8v16h16v-16c0-13.601562-10.398438-24-24-24s-24 10.398438-24 24v16h16zm0 0" fill="#daa520"/><path d="m424 32c-13.601562 0-24 10.398438-24 24v16h16v-16c0-4.800781 3.199219-8 8-8s8 3.199219 8 8v16h16v-16c0-13.601562-10.398438-24-24-24zm0 0" fill="#daa520"/><path d="m296 120v8c-8.800781 0-16 7.199219-16 16v64c0 8.800781 7.199219 16 16 16h48c8.800781 0 16-7.199219 16-16v-32c0-8.800781-7.199219-16-16-16h-9.601562l-4.796876-20c-1.601562-7.199219-8-12-15.203124-12h-2.398438v-8zm17.601562 24 4.796876 20c1.601562 7.199219 8 12 15.203124 12h10.398438v32h-48v-64zm0 0" fill="#daa520"/><path d="m398.398438 224h18.402343c8 0 14.398438-5.601562 16-13.601562l8.800781-50.398438h-67.203124l8.800781 50.398438c.800781 8 8 13.601562 15.199219 13.601562zm24-48-5.597657 32h-18.402343l-5.597657-32zm0 0" fill="#daa520"/><path d="m128 120c0 8.800781 7.199219 16 16 16h24c8.800781 0 16-7.199219 16-16v-32h-56zm16-16h24v16h-24zm0 0" fill="#daa520"/><path d="m128 64h56v16h-56zm0 0" fill="#daa520"/><path d="m272 88h176v16h-176zm0 0" fill="#daa520"/><path d="m32 184h184v16h-184zm0 0" fill="#daa520"/></svg>
